<!-- Generator: Avocode undefined - http://avocode.com -->
<svg height="44" width="44" xmlns:xlink="http://www.w3.org/1999/xlink" xmlns="http://www.w3.org/2000/svg" viewBox="0 0 44 44">
    <path fill="#383838" opacity="0.3" fill-rule="evenodd" d="M 22.01 -0.01 C 9.88 -0.01 0.01 9.87 0.01 22 C 0.01 34.13 9.88 44.01 22.01 44.01 C 34.13 44.01 44 34.13 44 22 C 44 9.87 34.13 -0.01 22.01 -0.01 Z M 36.55 10.14 C 39.17 13.34 40.75 17.41 40.79 21.85 C 40.17 21.72 33.96 20.46 27.71 21.24 C 27.58 20.92 27.45 20.6 27.31 20.27 C 26.91 19.36 26.5 18.45 26.06 17.55 C 33.01 14.72 36.15 10.68 36.55 10.14 Z M 22.01 3.23 C 26.78 3.23 31.14 5.02 34.46 7.97 C 34.13 8.45 31.3 12.25 24.62 14.76 C 21.53 9.1 18.12 4.45 17.6 3.76 C 19.02 3.41 20.49 3.23 22.01 3.23 Z M 14.02 5.02 C 14.51 5.7 17.87 10.35 20.99 15.89 C 12.2 18.22 4.46 18.19 3.61 18.18 C 4.83 12.35 8.76 7.5 14.02 5.02 Z M 3.22 22.03 C 3.22 21.84 3.22 21.64 3.23 21.45 C 4.05 21.47 13.15 21.59 22.54 18.78 C 23.07 19.83 23.59 20.9 24.06 21.97 C 23.81 22.04 23.57 22.11 23.32 22.19 C 13.63 25.33 8.47 33.87 8.05 34.6 C 5.05 31.26 3.22 26.86 3.22 22.03 Z M 22.01 40.82 C 17.66 40.82 13.66 39.34 10.47 36.86 C 10.81 36.17 14.62 28.81 25.21 25.12 C 25.25 25.1 25.29 25.09 25.34 25.08 C 27.98 31.94 29.07 37.68 29.35 39.33 C 27.09 40.29 24.61 40.82 22.01 40.82 Z M 32.5 37.61 C 32.31 36.47 31.31 30.96 28.86 24.21 C 34.74 23.27 39.91 24.81 40.56 25.01 C 39.72 30.24 36.72 34.76 32.5 37.61 Z" />
</svg>