<!-- Generator: Avocode undefined - http://avocode.com -->
<svg xmlns:xlink="http://www.w3.org/1999/xlink" xmlns="http://www.w3.org/2000/svg" viewBox="0 0 8 16">
    <path fill="#383838" opacity="0.3" fill-rule="evenodd" d="M 6.98 0.94 C 6.98 0.94 5.33 0.94 5.33 0.94 C 5.33 0.94 2.01 0.69 2.01 4.18 C 2.01 4.93 2.01 5.99 2.01 5.99 C 2.01 5.99 0.01 5.99 0.01 5.99 C 0.01 5.99 0.02 8 0.02 8 C 0.02 8 2.01 8 2.01 8 C 2.01 8 1.99 16.01 1.99 16.01 C 1.99 16.01 5.01 16.01 5.01 16.01 C 5.01 16.01 5.01 8.03 5.01 8.03 C 5.01 8.03 6.75 8 6.75 8 C 6.75 8 7.38 5.99 7.38 5.99 C 7.38 5.99 4.98 5.99 4.98 5.99 C 4.98 5.99 4.98 3.93 4.98 3.93 C 4.98 3.93 4.96 3.01 6.03 3.01 C 6.03 3.01 6.97 3.01 6.97 3.01 C 6.97 3.01 6.98 0.94 6.98 0.94 Z" />
</svg>