<!-- Generator: Avocode undefined - http://avocode.com -->
<svg height="138" width="91" xmlns:xlink="http://www.w3.org/1999/xlink" xmlns="http://www.w3.org/2000/svg" viewBox="0 0 91 138">
    <path fill="#ffffff" fill-rule="evenodd" d="M 3.04 138.02 C 3.04 138.02 1.96 134.95 1.96 134.95 C 1.85 134.64 -8.61 103.74 20.1 82.28 C 19.49 78.06 19.23 75.34 19.22 75.22 C 17.62 51.12 21.04 31.53 29.39 16.95 C 35.06 7.05 41.37 2.4 44.62 0.51 C 44.62 0.51 45.48 -0.01 45.48 -0.01 C 45.48 -0.01 46.34 0.51 46.34 0.51 C 49.6 2.4 55.9 7.05 61.57 16.95 C 69.92 31.52 73.34 51.12 71.74 75.18 C 71.73 75.34 71.48 78.04 70.87 82.24 C 99.66 103.7 89.17 134.64 89.07 134.95 C 89.07 134.95 87.98 138.02 87.98 138.02 C 87.98 138.02 86.49 135.13 86.49 135.13 C 79.45 121.46 69.31 115.83 63.15 113.57 C 60.85 119.27 58.25 123.6 55.4 126.47 C 55.4 126.47 54.99 126.89 54.99 126.89 C 54.99 126.89 35.98 126.89 35.98 126.89 C 35.98 126.89 35.57 126.47 35.57 126.47 C 32.72 123.61 30.11 119.28 27.82 113.59 C 21.68 115.86 11.57 121.49 4.53 135.13 C 4.53 135.13 3.04 138.02 3.04 138.02 Z M 22.02 75 C 22.02 75 22.31 78.09 23 82.71 C 23 82.71 23.13 83.57 23.13 83.57 C 23.13 83.57 22.43 84.07 22.43 84.07 C 10.72 92.57 4.17 103.56 2.95 116.74 C 2.4 122.65 3.1 127.66 3.76 130.74 C 11.65 117.54 22.3 112.39 28.19 110.47 C 28.19 110.47 29.46 110.06 29.46 110.06 C 29.46 110.06 29.94 111.31 29.94 111.31 C 32.1 116.96 34.53 121.25 37.15 124.06 C 37.15 124.06 53.81 124.06 53.81 124.06 C 56.43 121.24 58.86 116.95 61.03 111.29 C 61.03 111.29 61.51 110.04 61.51 110.04 C 61.51 110.04 62.77 110.45 62.77 110.45 C 68.69 112.37 79.36 117.51 87.27 130.73 C 87.93 127.62 88.63 122.55 88.07 116.61 C 86.81 103.46 80.24 92.5 68.54 84.03 C 68.54 84.03 67.84 83.52 67.84 83.52 C 67.84 83.52 67.97 82.67 67.97 82.67 C 68.65 78.07 68.94 74.99 68.94 74.96 C 70.5 51.5 67.21 32.44 59.14 18.36 C 53.97 9.34 48.2 4.98 45.48 3.29 C 39.85 6.81 18.6 23.59 22.02 75 C 22.02 75 22.02 75 22.02 75 Z M 45.44 59.05 C 36.63 59.05 29.47 51.84 29.47 42.98 C 29.47 34.11 36.63 26.9 45.44 26.9 C 54.25 26.9 61.41 34.11 61.41 42.98 C 61.41 51.84 54.25 59.05 45.44 59.05 Z M 45.44 29.72 C 38.18 29.72 32.28 35.67 32.28 42.98 C 32.28 50.28 38.18 56.23 45.44 56.23 C 52.7 56.23 58.6 50.28 58.61 42.98 C 58.61 35.67 52.7 29.72 45.44 29.72 Z" />
</svg>