<!-- Generator: Avocode undefined - http://avocode.com -->
<svg height="126" width="159" xmlns:xlink="http://www.w3.org/1999/xlink" xmlns="http://www.w3.org/2000/svg" viewBox="0 0 159 126">
    <path stroke-linejoin="miter" stroke-linecap="butt" stroke-width="3" stroke="#ffffff" fill="none" fill-rule="evenodd" d="M 156.82 88.05 C 156.82 88.05 152.08 90.32 152.08 90.32 C 150.59 91.04 149.19 92.96 148.96 94.59 C 148.96 94.59 147.76 99.4 147.76 99.4 C 147.21 100.95 147.51 103.34 148.44 104.7 C 148.44 104.7 151.9 109.76 151.9 109.76 C 152.84 111.12 152.64 113.19 151.48 114.35 C 151.48 114.35 146.34 119.49 146.34 119.49 C 145.17 120.66 143.1 120.85 141.74 119.92 C 141.74 119.92 136.64 116.42 136.64 116.42 C 135.27 115.49 132.89 115.18 131.33 115.74 C 131.33 115.74 127.16 116.81 127.16 116.81 C 125.53 117.05 123.61 118.47 122.9 119.96 C 122.9 119.96 121.04 123.83 121.04 123.83 C 120.33 125.31 118.44 126.18 116.85 125.75 C 116.85 125.75 109.83 123.87 109.83 123.87 C 108.23 123.44 107.03 121.75 107.16 120.11 C 107.16 120.11 107.5 115.69 107.5 115.69 C 107.62 114.05 106.64 111.89 105.32 110.91 C 105.32 110.91 105.01 110.68 103.78 109.45 C 102.47 108.13 102.11 107.64 102.11 107.64 C 101.13 106.31 98.99 105.33 97.34 105.45 C 97.34 105.45 92.85 105.8 92.85 105.8 C 91.21 105.92 89.51 104.72 89.09 103.13 C 89.09 103.13 87.21 96.11 87.21 96.11 C 86.78 94.52 87.65 92.63 89.13 91.91 C 89.13 91.91 93.3 89.92 93.3 89.92 C 94.78 89.2 96.21 87.29 96.46 85.66 C 96.46 85.66 97.22 82.62 97.22 82.62 C 97.74 81.06 97.41 78.67 96.48 77.31 C 96.48 77.31 93.64 73.16 93.64 73.16 C 92.71 71.8 92.9 69.73 94.07 68.56 C 94.07 68.56 99.21 63.43 99.21 63.43 C 100.38 62.26 102.45 62.07 103.81 63 C 103.81 63 107.32 65.4 107.32 65.4 C 108.68 66.34 111.04 66.57 112.56 65.92 C 112.56 65.92 116.5 64.65 116.5 64.65 C 118.12 64.31 120.02 62.81 120.73 61.32 C 120.73 61.32 122.89 56.81 122.89 56.81 C 123.61 55.32 125.5 54.46 127.09 54.88 C 127.09 54.88 134.11 56.76 134.11 56.76 C 135.7 57.19 136.9 58.89 136.78 60.53 C 136.78 60.53 136.47 64.57 136.47 64.57 C 136.34 66.22 137.36 68.32 138.72 69.25 C 138.72 69.25 139.92 70.06 141.54 71.68 C 142.54 72.68 142.54 72.68 142.54 72.68 C 143.48 73.87 145.6 74.74 147.24 74.62 C 147.24 74.62 153.1 74.17 153.1 74.17 C 154.74 74.04 156.44 75.24 156.86 76.84 C 156.86 76.84 158.75 83.86 158.75 83.86 C 159.17 85.45 158.3 87.34 156.82 88.05 Z M 128.58 84.65 C 125.3 81.37 120 81.37 116.73 84.64 C 113.46 87.9 113.47 93.21 116.75 96.48 C 120.02 99.76 125.33 99.76 128.59 96.5 C 131.86 93.23 131.85 87.92 128.58 84.65 Z M 95.2 56.69 C 95.2 56.69 88.78 57.89 88.78 57.89 C 87.16 58.2 85.41 59.73 84.89 61.29 C 84.89 61.29 83.03 65.83 83.03 65.83 C 82.29 67.3 82.45 69.63 83.38 70.99 C 83.38 70.99 87.06 76.37 87.06 76.37 C 87.99 77.73 87.8 79.8 86.63 80.97 C 86.63 80.97 80.98 86.62 80.98 86.62 C 79.81 87.79 77.74 87.98 76.38 87.05 C 76.38 87.05 71.06 83.41 71.06 83.41 C 69.7 82.48 67.38 82.33 65.91 83.08 C 65.91 83.08 61.27 85.02 61.27 85.02 C 59.71 85.54 58.18 87.3 57.87 88.92 C 57.87 88.92 56.7 95.19 56.7 95.19 C 56.4 96.81 54.8 98.14 53.15 98.14 C 53.15 98.14 45.15 98.14 45.15 98.14 C 43.5 98.14 41.9 96.81 41.59 95.19 C 41.59 95.19 40.43 88.96 40.43 88.96 C 40.12 87.34 38.59 85.59 37.03 85.07 C 37.03 85.07 32.31 83.13 32.31 83.13 C 30.84 82.38 28.52 82.53 27.15 83.47 C 27.15 83.47 21.92 87.05 21.92 87.05 C 20.56 87.98 18.49 87.79 17.32 86.62 C 17.32 86.62 11.66 80.97 11.66 80.97 C 10.5 79.8 10.3 77.73 11.24 76.37 C 11.24 76.37 14.83 71.12 14.83 71.12 C 15.76 69.76 15.91 67.44 15.17 65.97 C 15.17 65.97 13.24 61.26 13.24 61.26 C 12.71 59.7 10.96 58.16 9.34 57.86 C 9.34 57.86 3.1 56.69 3.1 56.69 C 1.47 56.39 0.15 54.79 0.15 53.14 C 0.15 53.14 0.15 45.14 0.15 45.14 C 0.15 43.49 1.47 41.89 3.1 41.58 C 3.1 41.58 9.34 40.41 9.34 40.41 C 10.96 40.11 12.71 38.58 13.24 37.01 C 13.24 37.01 15.17 32.31 15.17 32.31 C 15.91 30.84 15.76 28.52 14.83 27.15 C 14.83 27.15 11.24 21.91 11.24 21.91 C 10.3 20.54 10.5 18.48 11.66 17.31 C 11.66 17.31 17.32 11.65 17.32 11.65 C 18.49 10.48 20.55 10.29 21.91 11.22 C 21.91 11.22 27.15 14.81 27.15 14.81 C 28.51 15.74 30.83 15.89 32.31 15.15 C 32.31 15.15 37.03 13.2 37.03 13.2 C 38.59 12.68 40.12 10.93 40.43 9.31 C 40.43 9.31 41.59 3.09 41.59 3.09 C 41.9 1.46 43.5 0.14 45.15 0.14 C 45.15 0.14 53.15 0.14 53.15 0.14 C 54.8 0.14 56.4 1.46 56.7 3.09 C 56.7 3.09 57.87 9.35 57.87 9.35 C 58.18 10.97 59.71 12.73 61.27 13.26 C 61.27 13.26 65.92 15.19 65.92 15.19 C 67.39 15.94 69.7 15.79 71.07 14.86 C 71.07 14.86 76.38 11.22 76.38 11.22 C 77.74 10.29 79.81 10.48 80.98 11.65 C 80.98 11.65 86.63 17.31 86.63 17.31 C 87.8 18.48 87.99 20.54 87.06 21.9 C 87.06 21.9 83.38 27.29 83.38 27.29 C 82.45 28.65 82.29 30.97 83.03 32.45 C 83.03 32.45 84.89 36.98 84.89 36.98 C 85.41 38.55 87.16 40.08 88.78 40.38 C 88.78 40.38 95.2 41.58 95.2 41.58 C 96.82 41.89 98.15 43.49 98.15 45.14 C 98.15 45.14 98.15 53.14 98.15 53.14 C 98.15 54.79 96.82 56.39 95.2 56.69 Z M 49.06 36.16 C 41.92 36.16 36.12 41.97 36.12 49.14 C 36.12 56.3 41.92 62.11 49.06 62.11 C 56.21 62.11 62 56.3 62 49.14 C 62 41.97 56.21 36.16 49.06 36.16 Z" />
</svg>