<!-- Generator: Avocode undefined - http://avocode.com -->
<svg height="16" width="16" xmlns:xlink="http://www.w3.org/1999/xlink" xmlns="http://www.w3.org/2000/svg" viewBox="0 0 16 16">
    <path fill="#383838" opacity="0.3" fill-rule="evenodd" d="M 13.01 15.98 C 13.01 15.98 13.01 9.58 13.01 9.58 C 13.01 8.18 12.04 7.23 10.82 7.23 C 9.89 7.23 9.35 7.87 9.1 8.49 C 9.01 8.71 8.99 9.02 8.99 9.33 C 8.99 9.33 8.99 15.98 8.99 15.98 C 8.99 15.98 6.01 15.98 6.01 15.98 C 6.01 15.98 6.01 4.99 6.01 4.99 C 6.01 4.99 8.7 4.99 8.7 4.99 C 8.7 4.99 9.02 6.11 9.02 6.11 C 9.47 5.4 10.43 4.61 12.25 4.61 C 14.47 4.61 16.01 5.9 16.01 9.1 C 16.01 9.1 16.01 15.98 16.01 15.98 C 16.01 15.98 13.01 15.98 13.01 15.98 Z M 2.57 3.61 C 1.44 3.61 0.69 2.89 0.69 1.92 C 0.69 0.92 1.44 0.21 2.59 0.21 C 3.74 0.21 4.44 0.92 4.46 1.92 C 4.46 2.89 3.76 3.61 2.57 3.61 Z M 4.01 16.01 C 4.01 16.01 1 16.01 1 16.01 C 1 16.01 1 4.99 1 4.99 C 1 4.99 4.01 4.99 4.01 4.99 C 4.01 4.99 4.01 16.01 4.01 16.01 Z" />
</svg>