<!-- Generator: Avocode undefined - http://avocode.com -->
<svg height="12" width="16" xmlns:xlink="http://www.w3.org/1999/xlink" xmlns="http://www.w3.org/2000/svg" viewBox="0 0 16 12">
    <path fill="#383838" opacity="0.3" fill-rule="evenodd" d="M 0.61 1.18 C 1.1 1.45 6.85 5.19 7.1 5.33 C 7.35 5.47 7.68 5.53 8 5.53 C 8.33 5.53 8.66 5.47 8.91 5.33 C 9.16 5.19 14.91 1.45 15.4 1.18 C 15.88 0.91 16.35 0.06 15.45 0.06 C 15.45 0.06 0.56 0.06 0.56 0.06 C -0.34 0.06 0.12 0.91 0.61 1.18 Z M 15.6 3.24 C 15.05 3.54 9.25 7.2 8.91 7.39 C 8.57 7.57 8.33 7.59 8 7.59 C 7.68 7.59 7.44 7.57 7.1 7.39 C 6.76 7.2 0.96 3.54 0.4 3.24 C 0.01 3.03 0.02 3.27 0.02 3.46 C 0.02 3.65 0.02 11.02 0.02 11.02 C 0.02 11.45 0.57 12.01 1.01 12.01 C 1.01 12.01 15 12.01 15 12.01 C 15.43 12.01 15.99 11.45 15.99 11.02 C 15.99 11.02 15.99 3.65 15.99 3.46 C 15.99 3.27 15.99 3.03 15.6 3.24 Z" />
</svg>