<!-- Generator: Avocode undefined - http://avocode.com -->
<svg height="44" width="45" xmlns:xlink="http://www.w3.org/1999/xlink" xmlns="http://www.w3.org/2000/svg" viewBox="0 0 45 44">
    <path fill="#383838" opacity="0.3" fill-rule="evenodd" d="M 22.49 -0.01 C 10.07 -0.01 -0.01 10.1 -0.01 22.56 C -0.01 32.53 6.44 40.99 15.38 43.98 C 16.51 44.19 16.92 43.49 16.92 42.89 C 16.92 42.35 16.9 40.93 16.89 39.05 C 10.63 40.42 9.31 36.03 9.31 36.03 C 8.28 33.42 6.81 32.73 6.81 32.73 C 4.77 31.32 6.97 31.35 6.97 31.35 C 9.22 31.51 10.41 33.68 10.41 33.68 C 12.42 37.13 15.68 36.13 16.96 35.55 C 17.16 34.1 17.75 33.1 18.39 32.54 C 13.39 31.97 8.14 30.03 8.14 21.38 C 8.14 18.92 9.01 16.9 10.45 15.33 C 10.22 14.76 9.45 12.46 10.67 9.35 C 10.67 9.35 12.56 8.75 16.86 11.67 C 18.66 11.17 20.58 10.92 22.5 10.91 C 24.41 10.92 26.33 11.17 28.13 11.67 C 32.43 8.75 34.31 9.35 34.31 9.35 C 35.54 12.46 34.77 14.76 34.54 15.33 C 35.98 16.9 36.85 18.92 36.85 21.38 C 36.85 30.05 31.59 31.96 26.58 32.52 C 27.38 33.22 28.1 34.59 28.1 36.7 C 28.1 39.72 28.08 42.15 28.08 42.89 C 28.08 43.49 28.48 44.2 29.62 43.98 C 38.56 40.98 45 32.53 45 22.56 C 45 10.1 34.92 -0.01 22.49 -0.01 Z" />
</svg>