<!-- Generator: Avocode undefined - http://avocode.com -->
<svg height="121" width="124" xmlns:xlink="http://www.w3.org/1999/xlink" xmlns="http://www.w3.org/2000/svg" viewBox="0 0 124 121">
    <path fill="#ffffff" fill-rule="evenodd" d="M 124 35.89 C 124 35.89 120.58 35.89 120.58 35.89 C 84.03 35.89 63.68 32.16 60.1 25.22 C 59.74 24.52 58.64 22.18 61.56 17.98 C 64.53 13.73 63.88 10.65 62.81 8.82 C 56.45 -2.09 13.88 1.34 3.96 2.3 C 3.96 2.3 3.96 -0.02 3.96 -0.02 C 3.96 -0.02 0 -0.02 0 -0.02 C 0 -0.02 0 121.01 0 121.01 C 0 121.01 3.96 121.01 3.96 121.01 C 3.96 121.01 3.96 81.48 3.96 81.48 C 20.54 79.82 45.43 79.21 55.44 83.17 C 55.44 83.17 55.44 98.4 55.44 98.4 C 55.44 98.4 55.66 98.4 55.66 98.4 C 55.71 99.6 56.01 100.77 56.58 101.89 C 62.35 113.07 93.81 114.36 120.58 114.36 C 120.58 114.36 123.87 114.36 123.87 114.36 C 123.87 114.36 102.29 73.69 102.29 73.69 C 102.29 73.69 124 35.89 124 35.89 Z M 58.32 15.69 C 56.63 18.12 55.75 20.42 55.66 22.59 C 55.66 22.59 55.44 22.59 55.44 22.59 C 55.44 22.59 55.44 79.13 55.44 79.13 C 41.04 74.34 11.92 76.71 3.96 77.48 C 3.96 77.48 3.96 6.31 3.96 6.31 C 23.73 4.33 55.32 3.85 59.4 10.84 C 59.66 11.28 60.44 12.64 58.32 15.69 Z M 117.29 110.65 C 82.8 110.44 63.57 106.93 60.1 100.2 C 59.94 99.89 59.64 99.31 59.6 98.4 C 59.6 98.4 59.39 98.4 59.39 98.4 C 59.39 98.4 59.39 88.89 59.39 88.89 C 59.39 88.89 59.39 85.99 59.39 85.99 C 59.39 85.99 59.39 80.87 59.39 80.87 C 59.39 80.87 59.39 62.49 59.39 62.49 C 59.39 62.49 59.39 30.19 59.39 30.19 C 68.77 37.93 94.19 39.34 117.17 39.45 C 117.17 39.45 97.77 73.55 97.77 73.55 C 97.77 73.55 117.29 110.65 117.29 110.65 Z" />
</svg>