<!-- Generator: Avocode undefined - http://avocode.com -->
<svg height="44" width="44" xmlns:xlink="http://www.w3.org/1999/xlink" xmlns="http://www.w3.org/2000/svg" viewBox="0 0 44 44">
    <path fill="#383838" opacity="0.3" fill-rule="evenodd" d="M 38.91 18.6 C 38.91 18.6 35.08 18.6 35.08 18.6 C 35.36 19.68 35.52 20.82 35.52 21.99 C 35.52 29.47 29.47 35.53 22 35.53 C 14.52 35.53 8.47 29.47 8.47 21.99 C 8.47 20.82 8.63 19.68 8.91 18.6 C 8.91 18.6 5.08 18.6 5.08 18.6 C 5.08 18.6 5.08 37.22 5.08 37.22 C 5.08 38.16 5.84 38.91 6.77 38.91 C 6.77 38.91 37.21 38.91 37.21 38.91 C 38.15 38.91 38.91 38.16 38.91 37.22 C 38.91 37.22 38.91 18.6 38.91 18.6 C 38.91 18.6 38.91 18.6 38.91 18.6 Z M 38.91 6.75 C 38.91 5.82 38.15 5.06 37.22 5.06 C 37.22 5.06 32.14 5.06 32.14 5.06 C 31.21 5.06 30.45 5.82 30.45 6.75 C 30.45 6.75 30.45 11.83 30.45 11.83 C 30.45 12.76 31.21 13.52 32.14 13.52 C 32.14 13.52 37.22 13.52 37.22 13.52 C 38.15 13.52 38.91 12.76 38.91 11.83 C 38.91 11.83 38.91 6.75 38.91 6.75 Z M 22 13.52 C 17.33 13.52 13.54 17.31 13.54 21.99 C 13.54 26.66 17.33 30.45 22 30.45 C 26.67 30.45 30.45 26.66 30.45 21.99 C 30.45 17.31 26.67 13.52 22 13.52 M 38.91 43.99 C 38.91 43.99 5.08 43.99 5.08 43.99 C 2.28 43.99 0.01 41.72 0.01 38.91 C 0.01 38.91 0.01 5.06 0.01 5.06 C 0.01 2.25 2.28 -0.02 5.08 -0.02 C 5.08 -0.02 38.91 -0.02 38.91 -0.02 C 41.71 -0.02 43.98 2.25 43.98 5.06 C 43.98 5.06 43.98 38.91 43.98 38.91 C 43.98 41.72 41.71 43.99 38.91 43.99" />
</svg>