<svg height="44" width="44" xmlns:xlink="http://www.w3.org/1999/xlink" xmlns="http://www.w3.org/2000/svg" viewBox="0 0 44 44">
	<g id='dribble-icon.svg'>
		<path fill="#383838" opacity="0.3" fill-rule="evenodd" d="M 22.01 -0.01 C 9.88 -0.01 0.01 9.87 0.01 22 C 0.01 34.13 9.88 44.01 22.01 44.01 C 34.13 44.01 44 34.13 44 22 C 44 9.87 34.13 -0.01 22.01 -0.01 Z M 36.55 10.14 C 39.17 13.34 40.75 17.41 40.79 21.85 C 40.17 21.72 33.96 20.46 27.71 21.24 C 27.58 20.92 27.45 20.6 27.31 20.27 C 26.91 19.36 26.5 18.45 26.06 17.55 C 33.01 14.72 36.15 10.68 36.55 10.14 Z M 22.01 3.23 C 26.78 3.23 31.14 5.02 34.46 7.97 C 34.13 8.45 31.3 12.25 24.62 14.76 C 21.53 9.1 18.12 4.45 17.6 3.76 C 19.02 3.41 20.49 3.23 22.01 3.23 Z M 14.02 5.02 C 14.51 5.7 17.87 10.35 20.99 15.89 C 12.2 18.22 4.46 18.19 3.61 18.18 C 4.83 12.35 8.76 7.5 14.02 5.02 Z M 3.22 22.03 C 3.22 21.84 3.22 21.64 3.23 21.45 C 4.05 21.47 13.15 21.59 22.54 18.78 C 23.07 19.83 23.59 20.9 24.06 21.97 C 23.81 22.04 23.57 22.11 23.32 22.19 C 13.63 25.33 8.47 33.87 8.05 34.6 C 5.05 31.26 3.22 26.86 3.22 22.03 Z M 22.01 40.82 C 17.66 40.82 13.66 39.34 10.47 36.86 C 10.81 36.17 14.62 28.81 25.21 25.12 C 25.25 25.1 25.29 25.09 25.34 25.08 C 27.98 31.94 29.07 37.68 29.35 39.33 C 27.09 40.29 24.61 40.82 22.01 40.82 Z M 32.5 37.61 C 32.31 36.47 31.31 30.96 28.86 24.21 C 34.74 23.27 39.91 24.81 40.56 25.01 C 39.72 30.24 36.72 34.76 32.5 37.61 Z" />
	</g>
	<g id='facebook-icon'>
	    <path fill="#383838" opacity="0.3" fill-rule="evenodd" d="M 6.98 0.94 C 6.98 0.94 5.33 0.94 5.33 0.94 C 5.33 0.94 2.01 0.69 2.01 4.18 C 2.01 4.93 2.01 5.99 2.01 5.99 C 2.01 5.99 0.01 5.99 0.01 5.99 C 0.01 5.99 0.02 8 0.02 8 C 0.02 8 2.01 8 2.01 8 C 2.01 8 1.99 16.01 1.99 16.01 C 1.99 16.01 5.01 16.01 5.01 16.01 C 5.01 16.01 5.01 8.03 5.01 8.03 C 5.01 8.03 6.75 8 6.75 8 C 6.75 8 7.38 5.99 7.38 5.99 C 7.38 5.99 4.98 5.99 4.98 5.99 C 4.98 5.99 4.98 3.93 4.98 3.93 C 4.98 3.93 4.96 3.01 6.03 3.01 C 6.03 3.01 6.97 3.01 6.97 3.01 C 6.97 3.01 6.98 0.94 6.98 0.94 Z" />
	</g>
	<g id='github-icon'>
	    <path fill="#383838" opacity="0.3" fill-rule="evenodd" d="M 22.49 -0.01 C 10.07 -0.01 -0.01 10.1 -0.01 22.56 C -0.01 32.53 6.44 40.99 15.38 43.98 C 16.51 44.19 16.92 43.49 16.92 42.89 C 16.92 42.35 16.9 40.93 16.89 39.05 C 10.63 40.42 9.31 36.03 9.31 36.03 C 8.28 33.42 6.81 32.73 6.81 32.73 C 4.77 31.32 6.97 31.35 6.97 31.35 C 9.22 31.51 10.41 33.68 10.41 33.68 C 12.42 37.13 15.68 36.13 16.96 35.55 C 17.16 34.1 17.75 33.1 18.39 32.54 C 13.39 31.97 8.14 30.03 8.14 21.38 C 8.14 18.92 9.01 16.9 10.45 15.33 C 10.22 14.76 9.45 12.46 10.67 9.35 C 10.67 9.35 12.56 8.75 16.86 11.67 C 18.66 11.17 20.58 10.92 22.5 10.91 C 24.41 10.92 26.33 11.17 28.13 11.67 C 32.43 8.75 34.31 9.35 34.31 9.35 C 35.54 12.46 34.77 14.76 34.54 15.33 C 35.98 16.9 36.85 18.92 36.85 21.38 C 36.85 30.05 31.59 31.96 26.58 32.52 C 27.38 33.22 28.1 34.59 28.1 36.7 C 28.1 39.72 28.08 42.15 28.08 42.89 C 28.08 43.49 28.48 44.2 29.62 43.98 C 38.56 40.98 45 32.53 45 22.56 C 45 10.1 34.92 -0.01 22.49 -0.01 Z" />
	</g>
	<g id='instagram-icon'>
	    <path fill="#383838" opacity="0.3" fill-rule="evenodd" d="M 38.91 18.6 C 38.91 18.6 35.08 18.6 35.08 18.6 C 35.36 19.68 35.52 20.82 35.52 21.99 C 35.52 29.47 29.47 35.53 22 35.53 C 14.52 35.53 8.47 29.47 8.47 21.99 C 8.47 20.82 8.63 19.68 8.91 18.6 C 8.91 18.6 5.08 18.6 5.08 18.6 C 5.08 18.6 5.08 37.22 5.08 37.22 C 5.08 38.16 5.84 38.91 6.77 38.91 C 6.77 38.91 37.21 38.91 37.21 38.91 C 38.15 38.91 38.91 38.16 38.91 37.22 C 38.91 37.22 38.91 18.6 38.91 18.6 C 38.91 18.6 38.91 18.6 38.91 18.6 Z M 38.91 6.75 C 38.91 5.82 38.15 5.06 37.22 5.06 C 37.22 5.06 32.14 5.06 32.14 5.06 C 31.21 5.06 30.45 5.82 30.45 6.75 C 30.45 6.75 30.45 11.83 30.45 11.83 C 30.45 12.76 31.21 13.52 32.14 13.52 C 32.14 13.52 37.22 13.52 37.22 13.52 C 38.15 13.52 38.91 12.76 38.91 11.83 C 38.91 11.83 38.91 6.75 38.91 6.75 Z M 22 13.52 C 17.33 13.52 13.54 17.31 13.54 21.99 C 13.54 26.66 17.33 30.45 22 30.45 C 26.67 30.45 30.45 26.66 30.45 21.99 C 30.45 17.31 26.67 13.52 22 13.52 M 38.91 43.99 C 38.91 43.99 5.08 43.99 5.08 43.99 C 2.28 43.99 0.01 41.72 0.01 38.91 C 0.01 38.91 0.01 5.06 0.01 5.06 C 0.01 2.25 2.28 -0.02 5.08 -0.02 C 5.08 -0.02 38.91 -0.02 38.91 -0.02 C 41.71 -0.02 43.98 2.25 43.98 5.06 C 43.98 5.06 43.98 38.91 43.98 38.91 C 43.98 41.72 41.71 43.99 38.91 43.99" />
	</g>
	<g id='linkedin-icon'>
	    <path fill="#383838" opacity="0.3" fill-rule="evenodd" d="M 13.01 15.98 C 13.01 15.98 13.01 9.58 13.01 9.58 C 13.01 8.18 12.04 7.23 10.82 7.23 C 9.89 7.23 9.35 7.87 9.1 8.49 C 9.01 8.71 8.99 9.02 8.99 9.33 C 8.99 9.33 8.99 15.98 8.99 15.98 C 8.99 15.98 6.01 15.98 6.01 15.98 C 6.01 15.98 6.01 4.99 6.01 4.99 C 6.01 4.99 8.7 4.99 8.7 4.99 C 8.7 4.99 9.02 6.11 9.02 6.11 C 9.47 5.4 10.43 4.61 12.25 4.61 C 14.47 4.61 16.01 5.9 16.01 9.1 C 16.01 9.1 16.01 15.98 16.01 15.98 C 16.01 15.98 13.01 15.98 13.01 15.98 Z M 2.57 3.61 C 1.44 3.61 0.69 2.89 0.69 1.92 C 0.69 0.92 1.44 0.21 2.59 0.21 C 3.74 0.21 4.44 0.92 4.46 1.92 C 4.46 2.89 3.76 3.61 2.57 3.61 Z M 4.01 16.01 C 4.01 16.01 1 16.01 1 16.01 C 1 16.01 1 4.99 1 4.99 C 1 4.99 4.01 4.99 4.01 4.99 C 4.01 4.99 4.01 16.01 4.01 16.01 Z" />
	</g>
	<g id='mail-icon'>
	    <path fill="#383838" opacity="0.3" fill-rule="evenodd" d="M 0.61 1.18 C 1.1 1.45 6.85 5.19 7.1 5.33 C 7.35 5.47 7.68 5.53 8 5.53 C 8.33 5.53 8.66 5.47 8.91 5.33 C 9.16 5.19 14.91 1.45 15.4 1.18 C 15.88 0.91 16.35 0.06 15.45 0.06 C 15.45 0.06 0.56 0.06 0.56 0.06 C -0.34 0.06 0.12 0.91 0.61 1.18 Z M 15.6 3.24 C 15.05 3.54 9.25 7.2 8.91 7.39 C 8.57 7.57 8.33 7.59 8 7.59 C 7.68 7.59 7.44 7.57 7.1 7.39 C 6.76 7.2 0.96 3.54 0.4 3.24 C 0.01 3.03 0.02 3.27 0.02 3.46 C 0.02 3.65 0.02 11.02 0.02 11.02 C 0.02 11.45 0.57 12.01 1.01 12.01 C 1.01 12.01 15 12.01 15 12.01 C 15.43 12.01 15.99 11.45 15.99 11.02 C 15.99 11.02 15.99 3.65 15.99 3.46 C 15.99 3.27 15.99 3.03 15.6 3.24 Z" />
	</g>
	<g id='twitter-icon'>
    	<path fill="#383838" opacity="0.3" fill-rule="evenodd" d="M 16.98 1.66 C 16.36 1.94 15.69 2.13 14.99 2.21 C 15.7 1.78 16.26 1.08 16.52 0.26 C 15.84 0.66 15.1 0.96 14.31 1.11 C 13.67 0.43 12.76 0 11.76 0 C 9.84 0 8.28 1.58 8.28 3.53 C 8.28 3.81 8.31 4.08 8.37 4.34 C 5.48 4.19 2.91 2.78 1.2 0.64 C 0.9 1.17 0.73 1.77 0.73 2.42 C 0.73 3.65 1.34 4.73 2.27 5.36 C 1.7 5.35 1.17 5.19 0.7 4.92 C 0.7 4.94 0.7 4.95 0.7 4.97 C 0.7 6.68 1.9 8.11 3.49 8.43 C 3.2 8.51 2.89 8.56 2.57 8.56 C 2.35 8.56 2.13 8.53 1.92 8.49 C 2.36 9.9 3.65 10.92 5.17 10.95 C 3.98 11.9 2.48 12.46 0.85 12.46 C 0.56 12.46 0.29 12.45 0.02 12.41 C 1.56 13.42 3.39 14 5.35 14 C 11.76 14 15.26 8.61 15.26 3.94 C 15.26 3.79 15.25 3.64 15.25 3.49 C 15.93 2.99 16.52 2.36 16.98 1.66 Z" />
	</g>
	<g id='radial-icon'>
		<circle r='60' cx='80' cy='80' fill="transparent" stroke='#f7f7f7' stroke-width='1em'>
		</circle>
		<circle r='60' cx='80' cy='80' fill="transparent" stroke='#3c989e' stroke-width='2em'>
		</circle>
	</g>
	<g id='service-icon-1'>
	    <path fill="#ffffff" fill-rule="evenodd" d="M 124 35.89 C 124 35.89 120.58 35.89 120.58 35.89 C 84.03 35.89 63.68 32.16 60.1 25.22 C 59.74 24.52 58.64 22.18 61.56 17.98 C 64.53 13.73 63.88 10.65 62.81 8.82 C 56.45 -2.09 13.88 1.34 3.96 2.3 C 3.96 2.3 3.96 -0.02 3.96 -0.02 C 3.96 -0.02 0 -0.02 0 -0.02 C 0 -0.02 0 121.01 0 121.01 C 0 121.01 3.96 121.01 3.96 121.01 C 3.96 121.01 3.96 81.48 3.96 81.48 C 20.54 79.82 45.43 79.21 55.44 83.17 C 55.44 83.17 55.44 98.4 55.44 98.4 C 55.44 98.4 55.66 98.4 55.66 98.4 C 55.71 99.6 56.01 100.77 56.58 101.89 C 62.35 113.07 93.81 114.36 120.58 114.36 C 120.58 114.36 123.87 114.36 123.87 114.36 C 123.87 114.36 102.29 73.69 102.29 73.69 C 102.29 73.69 124 35.89 124 35.89 Z M 58.32 15.69 C 56.63 18.12 55.75 20.42 55.66 22.59 C 55.66 22.59 55.44 22.59 55.44 22.59 C 55.44 22.59 55.44 79.13 55.44 79.13 C 41.04 74.34 11.92 76.71 3.96 77.48 C 3.96 77.48 3.96 6.31 3.96 6.31 C 23.73 4.33 55.32 3.85 59.4 10.84 C 59.66 11.28 60.44 12.64 58.32 15.69 Z M 117.29 110.65 C 82.8 110.44 63.57 106.93 60.1 100.2 C 59.94 99.89 59.64 99.31 59.6 98.4 C 59.6 98.4 59.39 98.4 59.39 98.4 C 59.39 98.4 59.39 88.89 59.39 88.89 C 59.39 88.89 59.39 85.99 59.39 85.99 C 59.39 85.99 59.39 80.87 59.39 80.87 C 59.39 80.87 59.39 62.49 59.39 62.49 C 59.39 62.49 59.39 30.19 59.39 30.19 C 68.77 37.93 94.19 39.34 117.17 39.45 C 117.17 39.45 97.77 73.55 97.77 73.55 C 97.77 73.55 117.29 110.65 117.29 110.65 Z" />
	</g>
	<g id='service-icon-2'>

	</g>
	<g id='service-icon-3'>
	    <path stroke-linejoin="miter" stroke-linecap="butt" stroke-width="3" stroke="#ffffff" fill="none" fill-rule="evenodd" d="M 156.82 88.05 C 156.82 88.05 152.08 90.32 152.08 90.32 C 150.59 91.04 149.19 92.96 148.96 94.59 C 148.96 94.59 147.76 99.4 147.76 99.4 C 147.21 100.95 147.51 103.34 148.44 104.7 C 148.44 104.7 151.9 109.76 151.9 109.76 C 152.84 111.12 152.64 113.19 151.48 114.35 C 151.48 114.35 146.34 119.49 146.34 119.49 C 145.17 120.66 143.1 120.85 141.74 119.92 C 141.74 119.92 136.64 116.42 136.64 116.42 C 135.27 115.49 132.89 115.18 131.33 115.74 C 131.33 115.74 127.16 116.81 127.16 116.81 C 125.53 117.05 123.61 118.47 122.9 119.96 C 122.9 119.96 121.04 123.83 121.04 123.83 C 120.33 125.31 118.44 126.18 116.85 125.75 C 116.85 125.75 109.83 123.87 109.83 123.87 C 108.23 123.44 107.03 121.75 107.16 120.11 C 107.16 120.11 107.5 115.69 107.5 115.69 C 107.62 114.05 106.64 111.89 105.32 110.91 C 105.32 110.91 105.01 110.68 103.78 109.45 C 102.47 108.13 102.11 107.64 102.11 107.64 C 101.13 106.31 98.99 105.33 97.34 105.45 C 97.34 105.45 92.85 105.8 92.85 105.8 C 91.21 105.92 89.51 104.72 89.09 103.13 C 89.09 103.13 87.21 96.11 87.21 96.11 C 86.78 94.52 87.65 92.63 89.13 91.91 C 89.13 91.91 93.3 89.92 93.3 89.92 C 94.78 89.2 96.21 87.29 96.46 85.66 C 96.46 85.66 97.22 82.62 97.22 82.62 C 97.74 81.06 97.41 78.67 96.48 77.31 C 96.48 77.31 93.64 73.16 93.64 73.16 C 92.71 71.8 92.9 69.73 94.07 68.56 C 94.07 68.56 99.21 63.43 99.21 63.43 C 100.38 62.26 102.45 62.07 103.81 63 C 103.81 63 107.32 65.4 107.32 65.4 C 108.68 66.34 111.04 66.57 112.56 65.92 C 112.56 65.92 116.5 64.65 116.5 64.65 C 118.12 64.31 120.02 62.81 120.73 61.32 C 120.73 61.32 122.89 56.81 122.89 56.81 C 123.61 55.32 125.5 54.46 127.09 54.88 C 127.09 54.88 134.11 56.76 134.11 56.76 C 135.7 57.19 136.9 58.89 136.78 60.53 C 136.78 60.53 136.47 64.57 136.47 64.57 C 136.34 66.22 137.36 68.32 138.72 69.25 C 138.72 69.25 139.92 70.06 141.54 71.68 C 142.54 72.68 142.54 72.68 142.54 72.68 C 143.48 73.87 145.6 74.74 147.24 74.62 C 147.24 74.62 153.1 74.17 153.1 74.17 C 154.74 74.04 156.44 75.24 156.86 76.84 C 156.86 76.84 158.75 83.86 158.75 83.86 C 159.17 85.45 158.3 87.34 156.82 88.05 Z M 128.58 84.65 C 125.3 81.37 120 81.37 116.73 84.64 C 113.46 87.9 113.47 93.21 116.75 96.48 C 120.02 99.76 125.33 99.76 128.59 96.5 C 131.86 93.23 131.85 87.92 128.58 84.65 Z M 95.2 56.69 C 95.2 56.69 88.78 57.89 88.78 57.89 C 87.16 58.2 85.41 59.73 84.89 61.29 C 84.89 61.29 83.03 65.83 83.03 65.83 C 82.29 67.3 82.45 69.63 83.38 70.99 C 83.38 70.99 87.06 76.37 87.06 76.37 C 87.99 77.73 87.8 79.8 86.63 80.97 C 86.63 80.97 80.98 86.62 80.98 86.62 C 79.81 87.79 77.74 87.98 76.38 87.05 C 76.38 87.05 71.06 83.41 71.06 83.41 C 69.7 82.48 67.38 82.33 65.91 83.08 C 65.91 83.08 61.27 85.02 61.27 85.02 C 59.71 85.54 58.18 87.3 57.87 88.92 C 57.87 88.92 56.7 95.19 56.7 95.19 C 56.4 96.81 54.8 98.14 53.15 98.14 C 53.15 98.14 45.15 98.14 45.15 98.14 C 43.5 98.14 41.9 96.81 41.59 95.19 C 41.59 95.19 40.43 88.96 40.43 88.96 C 40.12 87.34 38.59 85.59 37.03 85.07 C 37.03 85.07 32.31 83.13 32.31 83.13 C 30.84 82.38 28.52 82.53 27.15 83.47 C 27.15 83.47 21.92 87.05 21.92 87.05 C 20.56 87.98 18.49 87.79 17.32 86.62 C 17.32 86.62 11.66 80.97 11.66 80.97 C 10.5 79.8 10.3 77.73 11.24 76.37 C 11.24 76.37 14.83 71.12 14.83 71.12 C 15.76 69.76 15.91 67.44 15.17 65.97 C 15.17 65.97 13.24 61.26 13.24 61.26 C 12.71 59.7 10.96 58.16 9.34 57.86 C 9.34 57.86 3.1 56.69 3.1 56.69 C 1.47 56.39 0.15 54.79 0.15 53.14 C 0.15 53.14 0.15 45.14 0.15 45.14 C 0.15 43.49 1.47 41.89 3.1 41.58 C 3.1 41.58 9.34 40.41 9.34 40.41 C 10.96 40.11 12.71 38.58 13.24 37.01 C 13.24 37.01 15.17 32.31 15.17 32.31 C 15.91 30.84 15.76 28.52 14.83 27.15 C 14.83 27.15 11.24 21.91 11.24 21.91 C 10.3 20.54 10.5 18.48 11.66 17.31 C 11.66 17.31 17.32 11.65 17.32 11.65 C 18.49 10.48 20.55 10.29 21.91 11.22 C 21.91 11.22 27.15 14.81 27.15 14.81 C 28.51 15.74 30.83 15.89 32.31 15.15 C 32.31 15.15 37.03 13.2 37.03 13.2 C 38.59 12.68 40.12 10.93 40.43 9.31 C 40.43 9.31 41.59 3.09 41.59 3.09 C 41.9 1.46 43.5 0.14 45.15 0.14 C 45.15 0.14 53.15 0.14 53.15 0.14 C 54.8 0.14 56.4 1.46 56.7 3.09 C 56.7 3.09 57.87 9.35 57.87 9.35 C 58.18 10.97 59.71 12.73 61.27 13.26 C 61.27 13.26 65.92 15.19 65.92 15.19 C 67.39 15.94 69.7 15.79 71.07 14.86 C 71.07 14.86 76.38 11.22 76.38 11.22 C 77.74 10.29 79.81 10.48 80.98 11.65 C 80.98 11.65 86.63 17.31 86.63 17.31 C 87.8 18.48 87.99 20.54 87.06 21.9 C 87.06 21.9 83.38 27.29 83.38 27.29 C 82.45 28.65 82.29 30.97 83.03 32.45 C 83.03 32.45 84.89 36.98 84.89 36.98 C 85.41 38.55 87.16 40.08 88.78 40.38 C 88.78 40.38 95.2 41.58 95.2 41.58 C 96.82 41.89 98.15 43.49 98.15 45.14 C 98.15 45.14 98.15 53.14 98.15 53.14 C 98.15 54.79 96.82 56.39 95.2 56.69 Z M 49.06 36.16 C 41.92 36.16 36.12 41.97 36.12 49.14 C 36.12 56.3 41.92 62.11 49.06 62.11 C 56.21 62.11 62 56.3 62 49.14 C 62 41.97 56.21 36.16 49.06 36.16 Z" />
	</g>
	<g id='service-icon-4'>
	    <path fill="#ffffff" fill-rule="evenodd" d="M 3.04 138.02 C 3.04 138.02 1.96 134.95 1.96 134.95 C 1.85 134.64 -8.61 103.74 20.1 82.28 C 19.49 78.06 19.23 75.34 19.22 75.22 C 17.62 51.12 21.04 31.53 29.39 16.95 C 35.06 7.05 41.37 2.4 44.62 0.51 C 44.62 0.51 45.48 -0.01 45.48 -0.01 C 45.48 -0.01 46.34 0.51 46.34 0.51 C 49.6 2.4 55.9 7.05 61.57 16.95 C 69.92 31.52 73.34 51.12 71.74 75.18 C 71.73 75.34 71.48 78.04 70.87 82.24 C 99.66 103.7 89.17 134.64 89.07 134.95 C 89.07 134.95 87.98 138.02 87.98 138.02 C 87.98 138.02 86.49 135.13 86.49 135.13 C 79.45 121.46 69.31 115.83 63.15 113.57 C 60.85 119.27 58.25 123.6 55.4 126.47 C 55.4 126.47 54.99 126.89 54.99 126.89 C 54.99 126.89 35.98 126.89 35.98 126.89 C 35.98 126.89 35.57 126.47 35.57 126.47 C 32.72 123.61 30.11 119.28 27.82 113.59 C 21.68 115.86 11.57 121.49 4.53 135.13 C 4.53 135.13 3.04 138.02 3.04 138.02 Z M 22.02 75 C 22.02 75 22.31 78.09 23 82.71 C 23 82.71 23.13 83.57 23.13 83.57 C 23.13 83.57 22.43 84.07 22.43 84.07 C 10.72 92.57 4.17 103.56 2.95 116.74 C 2.4 122.65 3.1 127.66 3.76 130.74 C 11.65 117.54 22.3 112.39 28.19 110.47 C 28.19 110.47 29.46 110.06 29.46 110.06 C 29.46 110.06 29.94 111.31 29.94 111.31 C 32.1 116.96 34.53 121.25 37.15 124.06 C 37.15 124.06 53.81 124.06 53.81 124.06 C 56.43 121.24 58.86 116.95 61.03 111.29 C 61.03 111.29 61.51 110.04 61.51 110.04 C 61.51 110.04 62.77 110.45 62.77 110.45 C 68.69 112.37 79.36 117.51 87.27 130.73 C 87.93 127.62 88.63 122.55 88.07 116.61 C 86.81 103.46 80.24 92.5 68.54 84.03 C 68.54 84.03 67.84 83.52 67.84 83.52 C 67.84 83.52 67.97 82.67 67.97 82.67 C 68.65 78.07 68.94 74.99 68.94 74.96 C 70.5 51.5 67.21 32.44 59.14 18.36 C 53.97 9.34 48.2 4.98 45.48 3.29 C 39.85 6.81 18.6 23.59 22.02 75 C 22.02 75 22.02 75 22.02 75 Z M 45.44 59.05 C 36.63 59.05 29.47 51.84 29.47 42.98 C 29.47 34.11 36.63 26.9 45.44 26.9 C 54.25 26.9 61.41 34.11 61.41 42.98 C 61.41 51.84 54.25 59.05 45.44 59.05 Z M 45.44 29.72 C 38.18 29.72 32.28 35.67 32.28 42.98 C 32.28 50.28 38.18 56.23 45.44 56.23 C 52.7 56.23 58.6 50.28 58.61 42.98 C 58.61 35.67 52.7 29.72 45.44 29.72 Z" />
	</g>

</svg>