<!-- Generator: Avocode undefined - http://avocode.com -->
<svg height="14" width="17" xmlns:xlink="http://www.w3.org/1999/xlink" xmlns="http://www.w3.org/2000/svg" viewBox="0 0 17 14">
    <path fill="#383838" opacity="0.3" fill-rule="evenodd" d="M 16.98 1.66 C 16.36 1.94 15.69 2.13 14.99 2.21 C 15.7 1.78 16.26 1.08 16.52 0.26 C 15.84 0.66 15.1 0.96 14.31 1.11 C 13.67 0.43 12.76 0 11.76 0 C 9.84 0 8.28 1.58 8.28 3.53 C 8.28 3.81 8.31 4.08 8.37 4.34 C 5.48 4.19 2.91 2.78 1.2 0.64 C 0.9 1.17 0.73 1.77 0.73 2.42 C 0.73 3.65 1.34 4.73 2.27 5.36 C 1.7 5.35 1.17 5.19 0.7 4.92 C 0.7 4.94 0.7 4.95 0.7 4.97 C 0.7 6.68 1.9 8.11 3.49 8.43 C 3.2 8.51 2.89 8.56 2.57 8.56 C 2.35 8.56 2.13 8.53 1.92 8.49 C 2.36 9.9 3.65 10.92 5.17 10.95 C 3.98 11.9 2.48 12.46 0.85 12.46 C 0.56 12.46 0.29 12.45 0.02 12.41 C 1.56 13.42 3.39 14 5.35 14 C 11.76 14 15.26 8.61 15.26 3.94 C 15.26 3.79 15.25 3.64 15.25 3.49 C 15.93 2.99 16.52 2.36 16.98 1.66 Z" />
</svg>